<svg width="16" height="19" viewBox="0 0 16 19" fill="none" xmlns="http://www.w3.org/2000/svg">
<path d="M8.02654 9.44816C10.4975 9.44816 12.5006 7.44505 12.5006 4.97408C12.5006 2.50311 10.4975 0.5 8.02654 0.5C5.55558 0.5 3.55246 2.50311 3.55246 4.97408C3.55246 7.44505 5.55558 9.44816 8.02654 9.44816Z" fill="#9A9A9A"/>
<path fill-rule="evenodd" clip-rule="evenodd" d="M0.929634 15.6708C0.928447 15.3563 0.998789 15.0456 1.13535 14.7623C1.56391 13.9052 2.77243 13.4509 3.77525 13.2452C4.49848 13.0909 5.2317 12.9878 5.96945 12.9367C7.33534 12.8167 8.70912 12.8167 10.075 12.9367C10.8127 12.9884 11.5459 13.0915 12.2692 13.2452C13.272 13.4509 14.4805 13.8623 14.9091 14.7623C15.1837 15.3399 15.1837 16.0104 14.9091 16.588C14.4805 17.4879 13.272 17.8993 12.2692 18.0965C11.5468 18.2572 10.8133 18.3632 10.075 18.4136C8.96328 18.5078 7.84637 18.525 6.73228 18.465C6.47515 18.465 6.22658 18.465 5.96945 18.4136C5.23388 18.3638 4.5032 18.2578 3.78382 18.0965C2.77243 17.8993 1.57248 17.4879 1.13535 16.588C0.999487 16.3013 0.929214 15.988 0.929634 15.6708Z" fill="#9A9A9A"/>
</svg>
