<svg width="666" height="391" viewBox="0 0 666 391" fill="none" xmlns="http://www.w3.org/2000/svg">
<mask id="mask0_127_371" style="mask-type:luminance" maskUnits="userSpaceOnUse" x="0" y="193" width="176" height="198">
<path d="M0 193.082H175.531V390.571H0V193.082Z" fill="white"/>
</mask>
<g mask="url(#mask0_127_371)">
<path d="M120.688 390.072H175.219C175.219 389.459 175.219 388.835 175.219 388.222C175.219 270.094 152.546 195.556 0.244141 195.556V255.592C95.5644 255.592 120.697 302.332 120.697 388.222C120.697 388.846 120.697 389.459 120.688 390.072Z" fill="#D9231E"/>
</g>
<mask id="mask1_127_371" style="mask-type:luminance" maskUnits="userSpaceOnUse" x="198" y="193" width="177" height="198">
<path d="M198.019 193.082H374.8V390.571H198.019V193.082Z" fill="white"/>
</mask>
<g mask="url(#mask1_127_371)">
<path d="M253.663 390.072H199.142C199.132 389.459 199.132 388.846 199.132 388.222C199.132 270.094 221.815 195.556 374.107 195.556V255.592C278.796 255.592 253.654 302.342 253.654 388.222C253.654 388.846 253.663 389.459 253.663 390.072Z" fill="#30235B"/>
</g>
<path d="M101.42 85.4641L62.8667 127.921C63.2571 128.357 63.6475 128.794 64.0477 129.231C139.906 212.761 203.817 247.805 311.504 129.231L272.95 86.7844C205.554 160.99 157.757 147.517 102.601 86.7844C102.201 86.3478 101.811 85.9111 101.42 85.4641Z" fill="#7BAAF9"/>
<path d="M187.176 85.6305C208.658 85.6305 226.071 66.4606 226.071 42.81C226.071 19.1699 208.658 0 187.176 0C165.703 0 148.29 19.1699 148.29 42.81C148.29 66.4606 165.703 85.6305 187.176 85.6305Z" fill="black"/>
<path d="M331.053 388.367C359.446 387.743 376.098 368.687 375.58 341.908C375.063 315.315 357.514 296.613 329.296 297.237C300.894 297.85 284.076 317.301 284.584 343.893C285.101 370.486 302.465 388.99 331.053 388.367ZM330.614 365.829C318.492 366.088 311.786 356.212 311.542 343.498C311.298 330.587 317.789 320.035 329.726 319.775C341.663 319.515 348.378 329.578 348.632 342.687C348.876 355.599 342.551 365.558 330.614 365.829Z" fill="#30235B"/>
<path d="M429.268 389.214C453.874 388.684 469.686 373.496 471.853 354.17C472.175 352.236 470.701 351.113 468.349 351.165L448.457 351.602C446.28 351.644 445.216 352.829 444.719 355.147C443.235 362.507 438.97 366.645 430.829 366.821C418.531 367.092 413.261 356.415 413.017 343.888C412.802 332.713 417.633 320.664 429.932 320.394C438.072 320.217 442.493 324.167 444.27 331.455C444.855 333.752 445.958 334.885 448.135 334.834L468.026 334.397C470.379 334.345 471.794 332.775 471.384 330.28C467.948 311.464 451.756 297.554 427.511 298.084C400.924 298.666 385.395 319.24 385.883 344.481C386.371 369.919 402.68 389.796 429.268 389.214Z" fill="#30235B"/>
<path d="M553.284 314.201C546.032 303.857 534.691 297.745 521.036 298.036C497.523 298.556 481.594 317.601 482.111 344.38C482.638 371.358 499.28 389.685 522.793 389.176C536.448 388.875 547.545 382.273 554.397 371.524C559.004 380.87 566.705 385.901 577.217 386.827L575.509 298.005C565.036 299.387 557.54 304.762 553.284 314.201ZM530.669 365.869C519.63 366.108 511.5 357.043 511.246 343.933C510.992 330.835 518.771 321.416 529.811 321.167C540.84 320.927 548.98 330.003 549.234 343.102C549.488 356.211 541.699 365.63 530.669 365.869Z" fill="#30235B"/>
<path d="M605.066 286.516C614.836 286.308 624.86 280.881 624.665 270.475C624.47 260.266 614.231 255.089 604.461 255.307C594.515 255.526 584.667 261.129 584.862 271.348C585.067 281.754 595.12 286.734 605.066 286.516ZM618.242 388C620.595 387.948 621.834 386.576 621.785 384.07L620.887 337.632C620.507 317.786 610.668 305.093 593.051 301.621L594.651 384.663C594.7 387.168 595.989 388.488 598.341 388.436L618.242 388Z" fill="#30235B"/>
<path d="M661.656 387.051C664.009 386.999 665.248 385.627 665.199 383.121L663.199 279.08C662.808 259.234 652.979 246.53 635.352 243.058L638.065 383.714C638.114 386.219 639.403 387.539 641.755 387.487L661.656 387.051Z" fill="#30235B"/>
</svg>
