<svg width="375" height="391" viewBox="0 0 375 391" fill="none" xmlns="http://www.w3.org/2000/svg">
<mask id="mask0_0_1" style="mask-type:luminance" maskUnits="userSpaceOnUse" x="0" y="193" width="176" height="198">
<path d="M0 193.082H175.531V390.571H0V193.082Z" fill="white"/>
</mask>
<g mask="url(#mask0_0_1)">
<path d="M120.688 390.072H175.219C175.219 389.459 175.219 388.835 175.219 388.222C175.219 270.094 152.546 195.556 0.244141 195.556V255.592C95.5644 255.592 120.697 302.332 120.697 388.222C120.697 388.846 120.697 389.459 120.688 390.072Z" fill="#D9231E"/>
</g>
<path d="M253.663 390.072H199.142C199.132 389.459 199.132 388.846 199.132 388.222C199.132 270.094 221.815 195.556 374.107 195.556V255.592C278.796 255.592 253.654 302.342 253.654 388.222C253.654 388.846 253.663 389.459 253.663 390.072Z" fill="#30235B"/>
<path d="M101.42 85.4641L62.8667 127.921C63.2571 128.357 63.6475 128.794 64.0477 129.231C139.906 212.761 203.817 247.805 311.504 129.231L272.95 86.7844C205.554 160.99 157.757 147.517 102.601 86.7844C102.201 86.3478 101.811 85.9111 101.42 85.4641Z" fill="#7BAAF9"/>
<path d="M187.176 85.6305C208.658 85.6305 226.071 66.4606 226.071 42.81C226.071 19.1699 208.658 0 187.176 0C165.703 0 148.29 19.1699 148.29 42.81C148.29 66.4606 165.703 85.6305 187.176 85.6305Z" fill="black"/>
</svg>
