<svg width="670" height="391" viewBox="0 0 670 391" fill="none" xmlns="http://www.w3.org/2000/svg">
<mask id="mask0_127_371" style="mask-type:luminance" maskUnits="userSpaceOnUse" x="0" y="193" width="176" height="198">
<path d="M0 193.082H175.531V390.571H0V193.082Z" fill="white"/>
</mask>
<g mask="url(#mask0_127_371)">
<path d="M120.688 390.072H175.219C175.219 389.459 175.219 388.835 175.219 388.222C175.219 270.094 152.546 195.556 0.244141 195.556V255.592C95.5644 255.592 120.697 302.332 120.697 388.222C120.697 388.846 120.697 389.459 120.688 390.072Z" fill="#D9231E"/>
</g>
<mask id="mask1_127_371" style="mask-type:luminance" maskUnits="userSpaceOnUse" x="198" y="193" width="177" height="198">
<path d="M198.019 193.082H374.8V390.571H198.019V193.082Z" fill="white"/>
</mask>
<g mask="url(#mask1_127_371)">
<path d="M253.663 390.072H199.142C199.132 389.459 199.132 388.846 199.132 388.222C199.132 270.094 221.815 195.556 374.107 195.556V255.592C278.796 255.592 253.654 302.342 253.654 388.222C253.654 388.846 253.663 389.459 253.663 390.072Z" fill="#30235B"/>
</g>
<path d="M101.42 85.4641L62.8667 127.921C63.2571 128.357 63.6475 128.794 64.0477 129.231C139.906 212.761 203.817 247.805 311.504 129.231L272.95 86.7844C205.554 160.99 157.757 147.517 102.601 86.7844C102.201 86.3478 101.811 85.9111 101.42 85.4641Z" fill="#7BAAF9"/>
<path d="M187.176 85.6305C208.658 85.6305 226.071 66.4606 226.071 42.81C226.071 19.1699 208.658 0 187.176 0C165.703 0 148.29 19.1699 148.29 42.81C148.29 66.4606 165.703 85.6305 187.176 85.6305Z" fill="black"/>
<path d="M335.483 382.156C363.876 381.532 380.527 362.477 380.01 335.697C379.493 309.105 361.943 290.403 333.726 291.026C305.323 291.64 288.506 311.09 289.014 337.683C289.531 364.275 306.895 382.78 335.483 382.156ZM335.044 359.618C322.921 359.878 316.216 350.002 315.972 337.288C315.728 324.376 322.219 313.824 334.156 313.565C346.093 313.305 352.808 323.368 353.061 336.477C353.305 349.389 346.981 359.348 335.044 359.618Z" fill="#2D90EB" fill-opacity="0.7686"/>
<path d="M433.697 380.004C458.303 379.473 474.115 364.285 476.282 344.959C476.604 343.026 475.13 341.903 472.778 341.955L452.886 342.392C450.709 342.433 449.646 343.618 449.148 345.937C447.664 353.297 443.399 357.434 435.259 357.611C422.961 357.881 417.69 347.205 417.446 334.678C417.231 323.502 422.063 311.454 434.361 311.183C442.501 311.007 446.922 314.957 448.699 322.244C449.284 324.542 450.387 325.675 452.564 325.623L472.456 325.186C474.808 325.134 476.223 323.565 475.813 321.07C472.378 302.253 456.185 288.344 431.94 288.874C405.353 289.456 389.824 310.029 390.312 335.27C390.8 360.709 407.11 380.586 433.697 380.004Z" fill="#2D90EB" fill-opacity="0.7686"/>
<path d="M557.714 302.991C550.462 292.647 539.12 286.534 525.465 286.825C501.952 287.345 486.023 306.39 486.541 333.17C487.068 360.147 503.709 378.475 527.222 377.966C540.877 377.664 551.974 371.063 558.826 360.314C563.433 369.659 571.134 374.691 581.646 375.616L579.938 286.794C569.465 288.177 561.969 293.551 557.714 302.991ZM535.099 354.658C524.06 354.897 515.929 345.832 515.675 332.723C515.422 319.624 523.201 310.206 534.24 309.956C545.269 309.717 553.409 318.793 553.663 331.891C553.917 345 546.128 354.419 535.099 354.658Z" fill="#2D90EB" fill-opacity="0.7686"/>
<path d="M609.495 271.305C619.266 271.097 629.29 265.671 629.094 255.264C628.899 245.056 618.661 239.879 608.89 240.097C598.944 240.315 589.096 245.919 589.291 256.138C589.496 266.544 599.55 271.524 609.495 271.305ZM622.672 372.789C625.024 372.737 626.264 371.365 626.215 368.86L625.317 322.422C624.936 302.576 615.098 289.883 597.48 286.41L599.081 369.452C599.13 371.958 600.418 373.278 602.771 373.226L622.672 372.789Z" fill="#2D90EB" fill-opacity="0.7686"/>
<path d="M666.086 371.84C668.438 371.788 669.677 370.416 669.629 367.91L667.628 263.869C667.237 244.023 657.409 231.32 639.781 227.847L642.495 368.503C642.543 371.008 643.832 372.329 646.184 372.277L666.086 371.84Z" fill="#2D90EB" fill-opacity="0.7686"/>
<path d="M331.053 376.367C359.446 375.743 376.098 356.687 375.58 329.908C375.063 303.315 357.514 284.613 329.296 285.237C300.894 285.85 284.076 305.301 284.584 331.893C285.101 358.486 302.465 376.99 331.053 376.367ZM330.614 353.829C318.492 354.088 311.786 344.212 311.542 331.498C311.298 318.587 317.789 308.035 329.726 307.775C341.663 307.515 348.378 317.578 348.632 330.687C348.876 343.599 342.551 353.558 330.614 353.829Z" fill="#30235B"/>
<path d="M429.268 374.214C453.874 373.684 469.686 358.496 471.853 339.17C472.175 337.236 470.701 336.113 468.349 336.165L448.457 336.602C446.28 336.644 445.216 337.829 444.719 340.147C443.235 347.507 438.97 351.645 430.829 351.821C418.531 352.092 413.261 341.415 413.017 328.888C412.802 317.713 417.633 305.664 429.932 305.394C438.072 305.217 442.493 309.167 444.27 316.455C444.855 318.752 445.958 319.885 448.135 319.834L468.026 319.397C470.379 319.345 471.794 317.775 471.384 315.28C467.948 296.464 451.756 282.554 427.511 283.084C400.924 283.666 385.395 304.24 385.883 329.481C386.371 354.919 402.68 374.796 429.268 374.214Z" fill="#30235B"/>
<path d="M553.284 297.201C546.032 286.857 534.691 280.745 521.036 281.036C497.523 281.556 481.594 300.601 482.111 327.38C482.638 354.358 499.28 372.685 522.793 372.176C536.448 371.875 547.545 365.273 554.397 354.524C559.004 363.87 566.705 368.901 577.217 369.827L575.509 281.005C565.036 282.387 557.54 287.762 553.284 297.201ZM530.669 348.869C519.63 349.108 511.5 340.043 511.246 326.933C510.992 313.835 518.771 304.416 529.811 304.167C540.84 303.927 548.98 313.003 549.234 326.102C549.488 339.211 541.699 348.63 530.669 348.869Z" fill="#30235B"/>
<path d="M605.066 265.516C614.836 265.308 624.86 259.881 624.665 249.475C624.47 239.266 614.231 234.089 604.461 234.307C594.515 234.526 584.667 240.129 584.862 250.348C585.067 260.754 595.12 265.734 605.066 265.516ZM618.242 367C620.595 366.948 621.834 365.576 621.785 363.07L620.887 316.632C620.507 296.786 610.668 284.093 593.051 280.621L594.651 363.663C594.7 366.168 595.989 367.488 598.341 367.436L618.242 367Z" fill="#30235B"/>
<path d="M661.656 366.051C664.009 365.999 665.248 364.627 665.199 362.121L663.199 258.08C662.808 238.234 652.979 225.53 635.352 222.058L638.065 362.714C638.114 365.219 639.403 366.539 641.755 366.487L661.656 366.051Z" fill="#30235B"/>
</svg>
