<svg width="503" height="441" viewBox="0 0 503 441" fill="none" xmlns="http://www.w3.org/2000/svg">
<path d="M376.077 312.272L336.833 287.475L306.008 336.851C324.017 353.027 354.271 364.791 369.904 361.199C401.987 353.826 466.82 255.779 475.815 248.315C506.44 222.903 516.395 213.259 478.074 233.005C441.539 251.831 460.89 233.005 451.939 233.005C441.185 233.814 444.749 244.086 448.74 251.448L376.077 312.272Z" fill="url(#paint0_linear_29_311)"/>
<path d="M153.409 274.708C164.481 266.432 208.23 251.526 227.443 245.107L247.771 247.494C260.579 250.911 288.05 256.738 300.687 262.252C313.324 267.766 336.256 285.351 357.65 300.015L352.173 320.433C347.901 336.358 336.073 349.165 320.537 354.688C316.541 382.04 313.095 426.508 313.664 440.293L164.99 440.169L158.183 372.487L127.568 376.017L101.707 354.688C134.089 294.401 139.569 285.052 153.409 274.708Z" fill="url(#paint1_linear_29_311)"/>
<path d="M110.876 430.232C63.7701 423.803 94.4077 372.416 102.76 355.444C112.836 364.575 125.593 370.206 139.129 371.5L154.721 372.991L148.074 389.497L219.838 407.58L229.907 437.643C222.735 436.329 169.455 438.227 110.876 430.232Z" fill="url(#paint2_linear_29_311)"/>
<path d="M232.454 110.191C234.772 105.679 241.421 99.3608 249.471 110.191H232.454Z" fill="#30235B"/>
<ellipse cx="236.318" cy="264.788" rx="25.6597" ry="19.6812" fill="#CF0606"/>
<path d="M215.293 263.73L218.88 225.29H253.799L257.811 263.73C256.409 268.257 249.79 277.441 237.532 277.441C221.91 277.441 216.295 268.257 215.293 263.73Z" fill="url(#paint3_linear_29_311)"/>
<mask id="mask0_29_311" style="mask-type:alpha" maskUnits="userSpaceOnUse" x="215" y="225" width="43" height="53">
<path d="M215.293 263.73L218.88 225.29H253.799L257.818 263.808C256.416 268.335 249.775 277.442 237.517 277.442C221.895 277.442 216.295 268.257 215.293 263.73Z" fill="url(#paint4_linear_29_311)"/>
</mask>
<g mask="url(#mask0_29_311)">
<path opacity="0.1" d="M266.384 226.762C234.81 268.811 217.166 235.001 208.052 229.93L214.315 201.503L251.701 196.698L266.384 226.762Z" fill="black"/>
</g>
<path d="M235.713 240.722C198.054 240.722 191.579 182.539 203.214 155.927C229.393 121.487 262.118 141.577 275.207 155.927C278.359 178.104 281.834 240.722 235.713 240.722Z" fill="url(#paint5_linear_29_311)"/>
<path d="M275.85 196.211L268.473 190.361L269.614 186.006L278.041 191.987L275.85 196.211Z" fill="#111111"/>
<path d="M198.983 194.515L206.36 188.665L205.219 184.31L196.793 190.29L198.983 194.515Z" fill="#111111"/>
<path d="M205.734 159.424C232.432 178.146 262.03 167.225 273.491 159.424C271.078 167.616 274.497 183.363 276.508 190.213C293.88 165.863 288.2 152.714 283.189 149.183C282.354 137.047 272.104 106.705 237.695 108.143C203.285 109.581 196.608 135.849 197.582 145.587C184.553 164.645 192.305 183.278 198.589 190.213C205.734 175.283 205.571 164.809 205.734 159.424Z" fill="#30235B"/>
<g filter="url(#filter0_d_29_311)">
<path d="M240.429 126.88C200.443 125.44 191.637 153.84 190.491 170.199C190.406 171.422 189.406 172.385 188.18 172.385C186.878 172.385 185.84 171.301 185.945 170.003C187.637 149.029 197.978 112.096 240.429 114.634C283.255 117.195 291.56 153.964 290.205 174.35C290.137 175.368 289.28 176.138 288.26 176.138C287.155 176.138 286.267 175.241 286.23 174.136C285.662 157.223 275.245 127.967 240.429 126.88Z" fill="white"/>
</g>
<g filter="url(#filter1_d_29_311)">
<rect width="5.42281" height="22.2982" rx="2.7114" transform="matrix(0.982273 0.187456 -0.162536 0.986703 291.011 182.837)" fill="#24C28A"/>
</g>
<g filter="url(#filter2_d_29_311)">
<rect width="16.7038" height="46.4506" rx="8.35192" transform="matrix(0.982273 0.187456 -0.162536 0.986703 279.389 168.35)" fill="white"/>
</g>
<g filter="url(#filter3_d_29_311)">
<rect width="5.42281" height="22.2982" rx="2.7114" transform="matrix(-0.982273 0.187456 0.162536 0.986703 183.412 182.837)" fill="#24C28A"/>
</g>
<g filter="url(#filter4_d_29_311)">
<rect width="16.7038" height="46.4506" rx="8.35192" transform="matrix(-0.982273 0.187456 0.162536 0.986703 194.884 168.35)" fill="white"/>
</g>
<mask id="mask1_29_311" style="mask-type:alpha" maskUnits="userSpaceOnUse" x="179" y="169" width="23" height="47">
<rect width="16.7038" height="46.4506" rx="8.35192" transform="matrix(-0.982273 0.187456 0.162536 0.986703 194.884 168.35)" fill="white"/>
</mask>
<g mask="url(#mask1_29_311)">
<rect width="21.7284" height="50.4221" transform="matrix(0.98212 -0.188253 0.163234 0.986587 187.037 168.35)" fill="#E8E8E8"/>
</g>
<mask id="mask2_29_311" style="mask-type:alpha" maskUnits="userSpaceOnUse" x="273" y="169" width="22" height="47">
<rect width="16.7038" height="46.4506" rx="8.35192" transform="matrix(0.982273 0.187456 -0.162536 0.986703 279.389 168.35)" fill="white"/>
</mask>
<g mask="url(#mask2_29_311)">
<rect width="21.7284" height="50.4221" transform="matrix(-0.98212 -0.188253 -0.163234 0.986587 288.246 168.35)" fill="#E8E8E8"/>
</g>
<path opacity="0.5" d="M219.486 203.007C214.158 203.007 211.475 198.488 210.794 196.47C210.01 194.782 209.39 190.385 211.247 186.893C213.607 182.452 224.701 181.213 228.587 187.487C232.473 193.761 228.587 203.007 219.486 203.007Z" fill="#E6FCFF"/>
<path opacity="0.5" d="M254.786 203.007C260.114 203.007 262.797 198.488 263.479 196.47C264.263 194.782 264.882 190.385 263.026 186.893C260.665 182.452 249.571 181.213 245.685 187.487C241.799 193.761 245.685 203.007 254.786 203.007Z" fill="#E6FCFF"/>
<path fill-rule="evenodd" clip-rule="evenodd" d="M231.34 186.105C222.651 177.891 214.803 181.366 210.153 183.424C209.636 183.653 209.158 183.865 208.723 184.041L205.824 184.046C205.269 184.047 204.821 184.501 204.825 185.056L204.848 187.817C204.853 188.366 205.298 188.808 205.847 188.808L207.941 188.808C206.417 202.898 216.071 206.67 223.792 204.131C230.676 201.867 232.518 195.46 232.886 191.44C234.359 187.929 240.814 189.552 241.07 191.363C241.076 191.405 241.082 191.453 241.089 191.505C241.393 193.711 242.92 204.821 254.541 204.838C264.06 204.851 266.641 195.698 266.742 191.12L269.194 191.097C269.746 191.092 270.19 190.64 270.186 190.087L270.158 186.737C270.153 186.185 269.702 185.742 269.15 185.747L266.698 185.77C260.496 179.009 247.177 179.641 242.486 185.999C237.31 184.714 232.899 185.534 231.34 186.105ZM219.486 203.007C214.158 203.007 211.475 198.488 210.794 196.47C210.01 194.782 209.39 190.385 211.247 186.893C213.607 182.452 224.701 181.213 228.587 187.487C232.473 193.761 228.587 203.007 219.486 203.007ZM263.48 196.47C262.798 198.488 260.115 203.007 254.788 203.007C245.686 203.007 241.8 193.761 245.686 187.487C249.572 181.213 260.666 182.452 263.027 186.893C264.883 190.385 264.264 194.782 263.48 196.47Z" fill="#111111"/>
<path d="M161.841 434.59C161.841 434 162.319 433.522 162.909 433.522H315.233C316.265 433.522 317.102 434.359 317.102 435.392C317.102 438.489 314.591 441 311.494 441H168.25C164.71 441 161.841 438.13 161.841 434.59Z" fill="#B4B4B4"/>
<rect x="161.841" y="324.488" width="155.262" height="111.811" rx="2.94666" fill="url(#paint6_linear_29_311)"/>
<ellipse cx="239.471" cy="380.393" rx="11.0419" ry="11.8848" fill="white"/>
<path fill-rule="evenodd" clip-rule="evenodd" d="M129.153 180.642C129.35 177.018 130.021 173.983 130.581 172.297C131.68 175.255 132.224 178.095 132.407 180.685C134.814 180.883 137.452 181.468 140.201 182.651C138.634 183.253 135.815 183.976 132.447 184.188C132.259 188.036 131.34 191.026 130.581 192.557C129.658 189.775 129.236 186.912 129.126 184.216C126.622 184.098 123.962 183.645 121.377 182.651C122.8 181.834 125.578 180.844 129.153 180.642Z" fill="url(#paint7_linear_29_311)"/>
<path fill-rule="evenodd" clip-rule="evenodd" d="M102.589 156.794C102.72 154.381 103.167 152.362 103.54 151.239C104.271 153.208 104.633 155.099 104.755 156.823C106.357 156.954 108.113 157.344 109.943 158.131C108.9 158.532 107.023 159.013 104.782 159.154C104.657 161.716 104.045 163.706 103.54 164.725C102.925 162.873 102.645 160.968 102.571 159.173C100.904 159.095 99.134 158.793 97.4131 158.131C98.3602 157.588 100.209 156.929 102.589 156.794Z" fill="url(#paint8_linear_29_311)"/>
<path fill-rule="evenodd" clip-rule="evenodd" d="M59.7878 139.804C59.9847 136.179 60.6561 133.145 61.2157 131.458C62.3151 134.416 62.8585 137.257 63.0422 139.847C65.4484 140.044 68.087 140.629 70.8353 141.812C69.2684 142.415 66.4494 143.137 63.0818 143.349C62.894 147.198 61.9746 150.187 61.2157 151.719C60.2924 148.936 59.8711 146.074 59.7612 143.378C57.2565 143.26 54.5971 142.806 52.0117 141.812C53.4346 140.996 56.2125 140.006 59.7878 139.804Z" fill="url(#paint9_linear_29_311)"/>
<path fill-rule="evenodd" clip-rule="evenodd" d="M63.4521 223.11C63.7418 217.777 64.7296 213.313 65.5529 210.832C67.1703 215.184 67.9698 219.362 68.2401 223.173C71.7802 223.464 75.6622 224.324 79.7057 226.065C77.4004 226.951 73.2529 228.014 68.2983 228.326C68.022 233.988 66.6693 238.387 65.5529 240.64C64.1945 236.546 63.5746 232.335 63.4129 228.368C59.7279 228.194 55.8154 227.527 52.0118 226.065C54.1051 224.863 58.192 223.407 63.4521 223.11Z" fill="url(#paint10_linear_29_311)"/>
<ellipse cx="93.5541" cy="191.576" rx="1.81923" ry="1.95812" fill="#2F235A"/>
<ellipse cx="135.303" cy="135.432" rx="1.81923" ry="1.95812" fill="#FE9076"/>
<ellipse cx="43.7988" cy="183.802" rx="1.81923" ry="1.95812" fill="#FFA400"/>
<ellipse cx="125.331" cy="221.776" rx="1.81923" ry="1.95812" fill="#23BB86"/>
<path d="M130.846 127.26C126.733 121.18 115.147 108.193 101.707 104.886" stroke="#FE9076" stroke-width="1.60277" stroke-linecap="round"/>
<path d="M36.123 178.554C30.0439 174.845 14.5086 168.169 1.00001 171.133" stroke="#FFA400" stroke-width="1.60277" stroke-linecap="round"/>
<path d="M119.087 227.464C115.972 230.423 108.478 238.824 103.42 248.765" stroke="#23BB86" stroke-width="1.60277" stroke-linecap="round"/>
<path fill-rule="evenodd" clip-rule="evenodd" d="M343.885 180.642C343.688 177.018 343.017 173.983 342.457 172.297C341.358 175.255 340.814 178.095 340.631 180.685C338.224 180.883 335.586 181.468 332.837 182.651C334.404 183.253 337.223 183.976 340.591 184.188C340.779 188.036 341.698 191.026 342.457 192.557C343.38 189.775 343.802 186.912 343.912 184.216C346.416 184.098 349.076 183.645 351.661 182.651C350.238 181.834 347.46 180.844 343.885 180.642Z" fill="url(#paint11_linear_29_311)"/>
<path fill-rule="evenodd" clip-rule="evenodd" d="M370.449 156.794C370.318 154.381 369.871 152.362 369.498 151.239C368.767 153.208 368.405 155.099 368.283 156.823C366.681 156.954 364.925 157.344 363.095 158.131C364.138 158.532 366.015 159.013 368.256 159.154C368.381 161.716 368.993 163.706 369.498 164.725C370.113 162.873 370.393 160.968 370.467 159.173C372.134 159.095 373.904 158.793 375.625 158.131C374.678 157.588 372.829 156.929 370.449 156.794Z" fill="url(#paint12_linear_29_311)"/>
<path fill-rule="evenodd" clip-rule="evenodd" d="M413.25 139.804C413.053 136.179 412.382 133.145 411.822 131.458C410.723 134.416 410.18 137.257 409.996 139.847C407.59 140.044 404.951 140.629 402.203 141.812C403.77 142.415 406.589 143.137 409.956 143.349C410.144 147.198 411.064 150.187 411.822 151.719C412.746 148.936 413.167 146.074 413.277 143.378C415.782 143.26 418.441 142.806 421.026 141.812C419.603 140.996 416.826 140.006 413.25 139.804Z" fill="url(#paint13_linear_29_311)"/>
<path fill-rule="evenodd" clip-rule="evenodd" d="M409.586 223.11C409.296 217.777 408.308 213.313 407.485 210.832C405.868 215.184 405.068 219.362 404.798 223.173C401.258 223.464 397.376 224.324 393.332 226.065C395.638 226.951 399.785 228.014 404.74 228.326C405.016 233.988 406.369 238.387 407.485 240.64C408.844 236.546 409.463 232.335 409.625 228.368C413.31 228.194 417.223 227.527 421.026 226.065C418.933 224.863 414.846 223.407 409.586 223.11Z" fill="url(#paint14_linear_29_311)"/>
<ellipse cx="1.81923" cy="1.95812" rx="1.81923" ry="1.95812" transform="matrix(-1 0 0 1 381.303 189.618)" fill="#2F235A"/>
<ellipse cx="1.81923" cy="1.95812" rx="1.81923" ry="1.95812" transform="matrix(-1 0 0 1 339.554 133.474)" fill="#FE9076"/>
<ellipse cx="1.81923" cy="1.95812" rx="1.81923" ry="1.95812" transform="matrix(-1 0 0 1 431.058 181.844)" fill="#FFA400"/>
<ellipse cx="1.81923" cy="1.95812" rx="1.81923" ry="1.95812" transform="matrix(-1 0 0 1 349.526 219.818)" fill="#23BB86"/>
<path d="M342.192 127.26C346.305 121.18 357.891 108.193 371.331 104.886" stroke="#FE9076" stroke-width="1.60277" stroke-linecap="round"/>
<path d="M436.915 178.554C442.994 174.845 458.529 168.169 472.038 171.133" stroke="#FFA400" stroke-width="1.60277" stroke-linecap="round"/>
<path d="M353.951 227.464C357.066 230.423 364.56 238.824 369.618 248.765" stroke="#23BB86" stroke-width="1.60277" stroke-linecap="round"/>
<path d="M266.193 59.734C264.13 56.3042 259.955 58.1727 259.955 61.9088C259.955 64.7144 265.679 69.1031 266.193 69.6738C266.711 69.1031 272.15 64.7144 272.15 61.9088C272.15 58.201 268.26 56.3042 266.193 59.734Z" fill="#FFBCBC"/>
<path d="M279.682 63.8016C279.682 71.9404 273.558 78.4967 266.053 78.4967C258.547 78.4967 252.423 71.9404 252.423 63.8016C252.423 55.6628 258.547 49.1065 266.053 49.1065C273.558 49.1065 279.682 55.6628 279.682 63.8016Z" stroke="#F7F7F7" stroke-width="0.649684"/>
<path d="M217.267 39.2818C215.441 36.2463 211.746 37.8999 211.746 41.2066C211.746 43.6897 216.812 47.5738 217.267 48.0789C217.725 47.5738 222.539 43.6897 222.539 41.2066C222.539 37.925 219.096 36.2463 217.267 39.2818Z" fill="#FFBCBC"/>
<path d="M229.205 42.8817C229.205 50.0849 223.785 55.8875 217.142 55.8875C210.5 55.8875 205.079 50.0849 205.079 42.8817C205.079 35.6785 210.5 29.8759 217.142 29.8759C223.785 29.8759 229.205 35.6785 229.205 42.8817Z" stroke="#F7F7F7" stroke-width="0.574998"/>
<path d="M249.556 16.9773C248.307 14.9012 245.78 16.0322 245.78 18.2938C245.78 19.992 249.244 22.6485 249.556 22.9939C249.869 22.6485 253.161 19.992 253.161 18.2938C253.161 16.0494 250.807 14.9012 249.556 16.9773Z" fill="#FFBCBC"/>
<path d="M257.721 19.4395C257.721 24.366 254.014 28.3346 249.471 28.3346C244.927 28.3346 241.22 24.366 241.22 19.4395C241.22 14.513 244.927 10.5444 249.471 10.5444C254.014 10.5444 257.721 14.513 257.721 19.4395Z" stroke="#F7F7F7" stroke-width="0.393259"/>
<path d="M192.521 5.4246C191.499 3.72587 189.432 4.65128 189.432 6.50176C189.432 7.89133 192.267 10.065 192.521 10.3476C192.778 10.065 195.472 7.89133 195.472 6.50176C195.472 4.66531 193.545 3.72587 192.521 5.4246Z" fill="#FFBCBC"/>
<path d="M199.202 7.43917C199.202 11.4702 196.169 14.7175 192.452 14.7175C188.734 14.7175 185.701 11.4702 185.701 7.43917C185.701 3.40814 188.734 0.16089 192.452 0.16089C196.169 0.16089 199.202 3.40814 199.202 7.43917Z" stroke="#F7F7F7" stroke-width="0.321779"/>
<path d="M187.496 85.057C185.265 81.3482 180.75 83.3686 180.75 87.4088C180.75 90.4426 186.94 95.1884 187.496 95.8055C188.055 95.1884 193.937 90.4426 193.937 87.4088C193.937 83.3993 189.731 81.3482 187.496 85.057Z" fill="#FFBCBC"/>
<path d="M202.082 89.4553C202.082 98.2563 195.46 105.346 187.344 105.346C179.228 105.346 172.605 98.2563 172.605 89.4553C172.605 80.6544 179.228 73.5646 187.344 73.5646C195.46 73.5646 202.082 80.6544 202.082 89.4553Z" stroke="#F7F7F7" stroke-width="0.702541"/>
<defs>
<filter id="filter0_d_29_311" x="151.937" y="84.51" width="172.402" height="129.628" filterUnits="userSpaceOnUse" color-interpolation-filters="sRGB">
<feFlood flood-opacity="0" result="BackgroundImageFix"/>
<feColorMatrix in="SourceAlpha" type="matrix" values="0 0 0 0 0 0 0 0 0 0 0 0 0 0 0 0 0 0 127 0" result="hardAlpha"/>
<feOffset dy="4"/>
<feGaussianBlur stdDeviation="17"/>
<feColorMatrix type="matrix" values="0 0 0 0 0.0386285 0 0 0 0 0.0648437 0 0 0 0 0.104167 0 0 0 0.13 0"/>
<feBlend mode="normal" in2="BackgroundImageFix" result="effect1_dropShadow_29_311"/>
<feBlend mode="normal" in="SourceGraphic" in2="effect1_dropShadow_29_311" result="shape"/>
</filter>
<filter id="filter1_d_29_311" x="253.791" y="153.297" width="76.1428" height="90.0984" filterUnits="userSpaceOnUse" color-interpolation-filters="sRGB">
<feFlood flood-opacity="0" result="BackgroundImageFix"/>
<feColorMatrix in="SourceAlpha" type="matrix" values="0 0 0 0 0 0 0 0 0 0 0 0 0 0 0 0 0 0 127 0" result="hardAlpha"/>
<feOffset dy="4"/>
<feGaussianBlur stdDeviation="17"/>
<feColorMatrix type="matrix" values="0 0 0 0 0.0386285 0 0 0 0 0.0648437 0 0 0 0 0.104167 0 0 0 0.13 0"/>
<feBlend mode="normal" in2="BackgroundImageFix" result="effect1_dropShadow_29_311"/>
<feBlend mode="normal" in="SourceGraphic" in2="effect1_dropShadow_29_311" result="shape"/>
</filter>
<filter id="filter2_d_29_311" x="239.083" y="139.767" width="89.4683" height="114.131" filterUnits="userSpaceOnUse" color-interpolation-filters="sRGB">
<feFlood flood-opacity="0" result="BackgroundImageFix"/>
<feColorMatrix in="SourceAlpha" type="matrix" values="0 0 0 0 0 0 0 0 0 0 0 0 0 0 0 0 0 0 127 0" result="hardAlpha"/>
<feOffset dy="4"/>
<feGaussianBlur stdDeviation="17"/>
<feColorMatrix type="matrix" values="0 0 0 0 0.0386285 0 0 0 0 0.0648437 0 0 0 0 0.104167 0 0 0 0.13 0"/>
<feBlend mode="normal" in2="BackgroundImageFix" result="effect1_dropShadow_29_311"/>
<feBlend mode="normal" in="SourceGraphic" in2="effect1_dropShadow_29_311" result="shape"/>
</filter>
<filter id="filter3_d_29_311" x="144.49" y="153.297" width="76.1428" height="90.0984" filterUnits="userSpaceOnUse" color-interpolation-filters="sRGB">
<feFlood flood-opacity="0" result="BackgroundImageFix"/>
<feColorMatrix in="SourceAlpha" type="matrix" values="0 0 0 0 0 0 0 0 0 0 0 0 0 0 0 0 0 0 127 0" result="hardAlpha"/>
<feOffset dy="4"/>
<feGaussianBlur stdDeviation="17"/>
<feColorMatrix type="matrix" values="0 0 0 0 0.0386285 0 0 0 0 0.0648437 0 0 0 0 0.104167 0 0 0 0.13 0"/>
<feBlend mode="normal" in2="BackgroundImageFix" result="effect1_dropShadow_29_311"/>
<feBlend mode="normal" in="SourceGraphic" in2="effect1_dropShadow_29_311" result="shape"/>
</filter>
<filter id="filter4_d_29_311" x="145.721" y="139.767" width="89.4683" height="114.131" filterUnits="userSpaceOnUse" color-interpolation-filters="sRGB">
<feFlood flood-opacity="0" result="BackgroundImageFix"/>
<feColorMatrix in="SourceAlpha" type="matrix" values="0 0 0 0 0 0 0 0 0 0 0 0 0 0 0 0 0 0 127 0" result="hardAlpha"/>
<feOffset dy="4"/>
<feGaussianBlur stdDeviation="17"/>
<feColorMatrix type="matrix" values="0 0 0 0 0.0386285 0 0 0 0 0.0648437 0 0 0 0 0.104167 0 0 0 0.13 0"/>
<feBlend mode="normal" in2="BackgroundImageFix" result="effect1_dropShadow_29_311"/>
<feBlend mode="normal" in="SourceGraphic" in2="effect1_dropShadow_29_311" result="shape"/>
</filter>
<linearGradient id="paint0_linear_29_311" x1="386.087" y1="168.356" x2="389.116" y2="355.364" gradientUnits="userSpaceOnUse">
<stop stop-color="#FFEFE0"/>
<stop offset="1" stop-color="#FFBE99"/>
</linearGradient>
<linearGradient id="paint1_linear_29_311" x1="239.369" y1="212.898" x2="225.183" y2="476.871" gradientUnits="userSpaceOnUse">
<stop stop-color="#FF9F81"/>
<stop offset="1" stop-color="#F53838"/>
</linearGradient>
<linearGradient id="paint2_linear_29_311" x1="224.485" y1="305.704" x2="104.168" y2="359.278" gradientUnits="userSpaceOnUse">
<stop offset="0.0677966" stop-color="#FFEFE0"/>
<stop offset="1" stop-color="#FFBE99"/>
</linearGradient>
<linearGradient id="paint3_linear_29_311" x1="235.348" y1="183.939" x2="237.728" y2="254.521" gradientUnits="userSpaceOnUse">
<stop stop-color="#FFEFE0"/>
<stop offset="1" stop-color="#FFBE99"/>
</linearGradient>
<linearGradient id="paint4_linear_29_311" x1="235.348" y1="183.939" x2="232.013" y2="264.344" gradientUnits="userSpaceOnUse">
<stop stop-color="#FFEFE0"/>
<stop offset="1" stop-color="#FFBE99"/>
</linearGradient>
<linearGradient id="paint5_linear_29_311" x1="238.763" y1="146.303" x2="238.763" y2="231.075" gradientUnits="userSpaceOnUse">
<stop stop-color="#FFEFE0"/>
<stop offset="1" stop-color="#FFBE99"/>
</linearGradient>
<linearGradient id="paint6_linear_29_311" x1="271.531" y1="240.574" x2="205.777" y2="459.778" gradientUnits="userSpaceOnUse">
<stop offset="0.0171777" stop-color="white"/>
<stop offset="1" stop-color="#D7D7D7"/>
</linearGradient>
<linearGradient id="paint7_linear_29_311" x1="130.789" y1="174.453" x2="130.789" y2="193.477" gradientUnits="userSpaceOnUse">
<stop stop-color="#FFE89E"/>
<stop offset="1" stop-color="#FFBF1A"/>
</linearGradient>
<linearGradient id="paint8_linear_29_311" x1="103.678" y1="152.675" x2="103.678" y2="165.337" gradientUnits="userSpaceOnUse">
<stop stop-color="#FFE89E"/>
<stop offset="1" stop-color="#FFBF1A"/>
</linearGradient>
<linearGradient id="paint9_linear_29_311" x1="61.4235" y1="133.615" x2="61.4235" y2="152.638" gradientUnits="userSpaceOnUse">
<stop stop-color="#FFE89E"/>
<stop offset="1" stop-color="#FFBF1A"/>
</linearGradient>
<linearGradient id="paint10_linear_29_311" x1="65.8587" y1="214.004" x2="65.8587" y2="241.992" gradientUnits="userSpaceOnUse">
<stop stop-color="#FFE89E"/>
<stop offset="1" stop-color="#FFBF1A"/>
</linearGradient>
<linearGradient id="paint11_linear_29_311" x1="342.249" y1="174.453" x2="342.249" y2="193.477" gradientUnits="userSpaceOnUse">
<stop stop-color="#FFE89E"/>
<stop offset="1" stop-color="#FFBF1A"/>
</linearGradient>
<linearGradient id="paint12_linear_29_311" x1="369.36" y1="152.675" x2="369.36" y2="165.337" gradientUnits="userSpaceOnUse">
<stop stop-color="#FFE89E"/>
<stop offset="1" stop-color="#FFBF1A"/>
</linearGradient>
<linearGradient id="paint13_linear_29_311" x1="411.614" y1="133.615" x2="411.614" y2="152.638" gradientUnits="userSpaceOnUse">
<stop stop-color="#FFE89E"/>
<stop offset="1" stop-color="#FFBF1A"/>
</linearGradient>
<linearGradient id="paint14_linear_29_311" x1="407.179" y1="214.004" x2="407.179" y2="241.992" gradientUnits="userSpaceOnUse">
<stop stop-color="#FFE89E"/>
<stop offset="1" stop-color="#FFBF1A"/>
</linearGradient>
</defs>
</svg>
