<svg width="19" height="12" viewBox="0 0 19 12" fill="none" xmlns="http://www.w3.org/2000/svg">
<path d="M0.799999 1.31635V0.933333C0.799999 0.685798 0.91677 0.448401 1.12462 0.273367C1.33248 0.0983331 1.61438 0 1.90833 0L17.425 0C17.7189 0 18.0009 0.0983331 18.2087 0.273367C18.4166 0.448401 18.5333 0.685798 18.5333 0.933333V1.31635L9.66667 5.98302L0.799999 1.31635ZM9.96037 6.92918C9.87228 6.97549 9.77051 7.00004 9.66667 7.00004C9.56282 7.00004 9.46105 6.97549 9.37296 6.92918L0.799999 2.41698V10.2667C0.799999 10.5142 0.91677 10.7516 1.12462 10.9266C1.33248 11.1017 1.61438 11.2 1.90833 11.2H17.425C17.7189 11.2 18.0009 11.1017 18.2087 10.9266C18.4166 10.7516 18.5333 10.5142 18.5333 10.2667V2.41698L9.96037 6.92918Z" fill="#9A9A9A"/>
</svg>
