<svg width="18" height="20" viewBox="0 0 18 20" fill="none" xmlns="http://www.w3.org/2000/svg">
<path d="M14.6208 7.20141V5.32226C14.6208 2.69144 12.221 0.624374 9.16667 0.624374C6.11233 0.624374 3.7125 2.69144 3.7125 5.32226V7.20141C1.85808 7.20141 0.440001 8.42286 0.440001 10.0201V16.5972C0.440001 18.1945 1.85808 19.4159 3.7125 19.4159H14.6208C16.4753 19.4159 17.8933 18.1945 17.8933 16.5972V10.0201C17.8933 8.42286 16.4753 7.20141 14.6208 7.20141ZM5.89417 5.32226C5.89417 3.72498 7.31225 2.50353 9.16667 2.50353C11.0211 2.50353 12.4392 3.72498 12.4392 5.32226V7.20141H5.89417V5.32226ZM10.2575 14.718C10.2575 15.2818 9.82117 15.6576 9.16667 15.6576C8.51217 15.6576 8.07583 15.2818 8.07583 14.718V11.8993C8.07583 11.3356 8.51217 10.9597 9.16667 10.9597C9.82117 10.9597 10.2575 11.3356 10.2575 11.8993V14.718Z" fill="#9A9A9A"/>
</svg>
